<svg xmlns="http://www.w3.org/2000/svg" xmlns:xlink="http://www.w3.org/1999/xlink" width="500" zoomAndPan="magnify" viewBox="0 0 375 251.999989" height="336" preserveAspectRatio="xMidYMid meet" version="1.0"><defs><clipPath id="c40a230ed6"><path d="M 320.246094 9.042969 L 363.96875 9.042969 L 363.96875 47.144531 L 320.246094 47.144531 Z M 320.246094 9.042969 " clip-rule="nonzero"/></clipPath></defs><g clip-path="url(#c40a230ed6)"><path fill="#e34d26" d="M 320.246094 9.042969 L 364 9.042969 L 364 47.144531 L 320.246094 47.144531 Z M 320.246094 9.042969 " fill-opacity="1" fill-rule="nonzero"/></g><path fill="#e34d26" d="M 126.175781 203.722656 L 126.175781 226.527344 L 22.882812 178.542969 L 22.882812 160.035156 L 126.175781 112.046875 L 126.175781 134.859375 L 48.058594 169.070312 L 48.058594 169.503906 Z M 187.519531 86.703125 L 14.78125 86.703125 C 6.628906 86.703125 0.015625 93.3125 0.015625 101.472656 L 0.015625 237.109375 C 0.015625 245.261719 6.628906 251.875 14.78125 251.875 L 139.566406 251.875 L 187.519531 86.703125 " fill-opacity="1" fill-rule="nonzero"/><path fill="#f0652a" d="M 351.875 92.570312 L 248.585938 139.910156 L 248.585938 117.097656 L 328.421875 82.886719 L 328.421875 82.453125 L 248.585938 48.234375 L 248.585938 25.429688 L 351.875 72.769531 Z M 235.476562 0.0820312 L 187.519531 165.257812 L 359.980469 165.257812 C 368.132812 165.257812 374.746094 158.644531 374.746094 150.488281 L 374.746094 14.847656 C 374.746094 6.695312 368.132812 0.0820312 359.980469 0.0820312 L 235.476562 0.0820312 " fill-opacity="1" fill-rule="nonzero"/></svg>